# xmcd
#
# Track frame offsets:
#       150
#       37632
#       77040
#       114091
#       148796
#       176350
#       208256
#       250473
#
# Disc length: 3853 seconds
#
# Revision: 0
# Processed by: cddbd v1.5.1PL0 Copyright (c) Steve Scherf et al.
# Submitted via: WaveLab 4.01
#
DISCID=630f0b08
DTITLE=VA/ Plusquam - Wireless
DYEAR=2005
DGENRE=Progressive Trance
TTITLE0=V-Tunes/ G-Con
TTITLE1=Buzzmonx/ All You Can Eat
TTITLE2=Fusi and Johnson/ Trouble Galaxy
TTITLE3=Liquidsoul/ Open Mind
TTITLE4=Paste/ Down on the Streets
TTITLE5=Nyquist/ Flatline
TTITLE6=Ryan Halifax/ The Beauty and the Beat
TTITLE7=Varoman/ Kickin and Drummin
EXTD=
EXTT0=
EXTT1=
EXTT2=
EXTT3=
EXTT4=
EXTT5=
EXTT6=
EXTT7=
PLAYORDER=
